<?xml version="1.0" encoding="UTF-8" standalone="no"?>
<svg
   height="17"
   viewBox="0 -960 560 680"
   width="14"
   fill="#e3e3e3"
   version="1.1"
   id="svg1"
   sodipodi:docname="pin.svg"
   inkscape:version="1.4 (e7c3feb100, 2024-10-09)"
   xmlns:inkscape="http://www.inkscape.org/namespaces/inkscape"
   xmlns:sodipodi="http://sodipodi.sourceforge.net/DTD/sodipodi-0.dtd"
   xmlns="http://www.w3.org/2000/svg"
   xmlns:svg="http://www.w3.org/2000/svg">
  <defs
     id="defs1" />
  <sodipodi:namedview
     id="namedview1"
     pagecolor="#505050"
     bordercolor="#ffffff"
     borderopacity="1"
     inkscape:showpageshadow="0"
     inkscape:pageopacity="0"
     inkscape:pagecheckerboard="1"
     inkscape:deskcolor="#505050"
     inkscape:zoom="32.291667"
     inkscape:cx="7.0141935"
     inkscape:cy="9.9870967"
     inkscape:window-width="1920"
     inkscape:window-height="1005"
     inkscape:window-x="0"
     inkscape:window-y="0"
     inkscape:window-maximized="1"
     inkscape:current-layer="svg1" />
  <path
     d="m 280,-381 c 66,-53.33333 115.83333,-104.66667 149.5,-154 33.66667,-49.33333 50.5,-95.66667 50.5,-139 0,-60 -18.66667,-109.33333 -56,-148 -37.33333,-38.66667 -85.33333,-58 -144,-58 -58.66667,0 -106.66667,19.33333 -144,58 -37.33333,38.66667 -56,88 -56,148 0,43.33333 16.83333,89.66667 50.5,139 33.66667,49.33333 83.5,100.66667 149.5,154 z m 0,101 C 186,-349.33333 115.83333,-416.66667 69.5,-482 23.16667,-547.33333 0,-611.33333 0,-674 c 0,-83.33333 26,-151.83333 78,-205.5 52,-53.66667 119.33333,-80.5 202,-80.5 82.66667,0 150,26.83333 202,80.5 52,53.66667 78,122.16667 78,205.5 0,62.66667 -23.16667,126.66667 -69.5,192 -46.33333,65.33333 -116.5,132.66667 -210.5,202 z m 0,-320 c 22,0 40.83333,-7.83333 56.5,-23.5 15.66667,-15.66667 23.5,-34.5 23.5,-56.5 0,-22 -7.83333,-40.83333 -23.5,-56.5 C 320.83333,-752.16667 302,-760 280,-760 c -22,0 -40.83333,7.83333 -56.5,23.5 -15.66667,15.66667 -23.5,34.5 -23.5,56.5 0,22 7.83333,40.83333 23.5,56.5 15.66667,15.66667 34.5,23.5 56.5,23.5 z"
     id="path1"
     sodipodi:nodetypes="csssssssccssssssscsssssssss"
     style="fill:#ffd000;fill-opacity:1" />
</svg>
